<svg id="Capa_1" enable-background="new 0 0 512 512" height="512" viewBox="0 0 512 512" width="512" xmlns="http://www.w3.org/2000/svg"><g><path d="m420.939 135.394-120-120c-9.507-9.506-22.631-15.394-37.106-15.394h-180.666c-4.142 0-7.5 3.357-7.5 7.5v497c0 4.143 3.358 7.5 7.5 7.5h345.667c4.142 0 7.5-3.357 7.5-7.5v-332c-.001-14.474-5.889-27.599-15.395-37.106zm-104.62-83.44 68.06 68.06c-.183-.002-.363-.014-.546-.014h-67.5v-67.5c0-.183-.012-.363-.014-.546zm105.014 445.046h-330.666v-482h173.167c20.678 0 37.5 16.822 37.5 37.5v75c0 4.143 3.358 7.5 7.5 7.5h75c20.678 0 37.5 16.822 37.5 37.5v324.5z"/><path d="m368.835 195h-225.667c-4.142 0-7.5 3.357-7.5 7.5v60c0 4.143 3.358 7.5 7.5 7.5s7.5-3.357 7.5-7.5v-52.5h210.667v227h-210.667v-144.5c0-4.143-3.358-7.5-7.5-7.5s-7.5 3.357-7.5 7.5v152c0 4.143 3.358 7.5 7.5 7.5h225.667c4.142 0 7.5-3.357 7.5-7.5v-242c0-4.143-3.358-7.5-7.5-7.5z"/><path d="m158.168 105h7.5v52.5c0 12.406 10.093 22.5 22.5 22.5s22.5-10.094 22.5-22.5v-52.5h7.5c12.407 0 22.5-10.094 22.5-22.5s-10.093-22.5-22.5-22.5h-7.5v-7.5c0-12.406-10.093-22.5-22.5-22.5s-22.5 10.094-22.5 22.5v7.5h-7.5c-12.407 0-22.5 10.094-22.5 22.5s10.093 22.5 22.5 22.5zm0-30h15c4.142 0 7.5-3.357 7.5-7.5v-15c0-4.136 3.364-7.5 7.5-7.5s7.5 3.364 7.5 7.5v15c0 4.143 3.358 7.5 7.5 7.5h15c4.136 0 7.5 3.364 7.5 7.5s-3.364 7.5-7.5 7.5h-15c-4.142 0-7.5 3.357-7.5 7.5v60c0 4.136-3.364 7.5-7.5 7.5s-7.5-3.364-7.5-7.5v-60c0-4.143-3.358-7.5-7.5-7.5h-15c-4.136 0-7.5-3.364-7.5-7.5s3.364-7.5 7.5-7.5z"/><path d="m308.173 277.5c0-28.948-23.551-52.5-52.5-52.5s-52.5 23.552-52.5 52.5 23.551 52.5 52.5 52.5 52.5-23.552 52.5-52.5zm-90 0c0-20.678 16.822-37.5 37.5-37.5s37.5 16.822 37.5 37.5-16.822 37.5-37.5 37.5-37.5-16.822-37.5-37.5z"/><path d="m165.668 382.5v32c0 4.143 3.358 7.5 7.5 7.5h165.667c4.142 0 7.5-3.357 7.5-7.5v-32c0-20.678-16.822-37.5-37.5-37.5h-105.667c-20.678 0-37.5 16.822-37.5 37.5zm165.667 0v24.5h-15.001v-24.5c0-4.143-3.358-7.5-7.5-7.5s-7.5 3.357-7.5 7.5v24.5h-90.666v-24.5c0-4.143-3.358-7.5-7.5-7.5s-7.5 3.357-7.5 7.5v24.5h-15v-24.5c0-12.406 10.093-22.5 22.5-22.5h105.667c12.407 0 22.5 10.094 22.5 22.5z"/></g></svg>